<svg width="107.81" height="128.07" viewBox="0 0 107.81 128.07" xmlns="http://www.w3.org/2000/svg" xmlns:xlink="http://www.w3.org/1999/xlink" overflow="hidden"><defs></defs><g><path d="M77.72 43.49C77.72 34.12 71.44 26.22 62.86 23.75 54.81 10.57 45.97 0 45.97 0 45.97 0 45.95 0.03 45.91 0.07 45.87 0.03 45.84 0 45.84 0 45.84 0 16.06 35.57 16.06 57.66 16.06 78.01 31.15 88.06 45.9 87.84 60.66 88.06 75.74 78.01 75.74 57.66 75.74 56.18 75.6 54.64 75.35 53.05 76.87 50.19 77.72 46.95 77.72 43.49Z" fill="#2598D5"/><g><path d="M4.98 118.31 4.98 107.86C4.98 101.86 6.9 98.06 13.33 98.06 19.33 98.06 21.25 101.39 21.25 106.48L21.25 108.94 16.12 108.94 16.12 106.41C16.12 103.95 16.08 101.96 13.37 101.96 10.62 101.96 10.37 104.06 10.37 106.73L10.37 119.42C10.37 122.6 11.02 124.12 13.37 124.12 16.01 124.12 16.12 122.06 16.12 119.46L16.12 116.82 21.25 116.82 21.25 119.17C21.25 124.34 19.51 128.06 13.33 128.06 6.89 128.07 4.98 124.02 4.98 118.31Z" fill="#1A3768"/><path d="M29.35 98.39 35.06 98.39 40.92 127.67 35.97 127.67 34.81 120.91 29.71 120.91 28.52 127.67 23.49 127.67 29.35 98.39ZM34.23 117.51 32.24 105.22 30.25 117.51 34.23 117.51Z" fill="#1A3768"/><path d="M42.98 119.14 47.57 118.24C47.71 121.71 48.55 123.95 50.9 123.95 52.6 123.95 53.32 122.79 53.32 121.2 53.32 118.67 52.02 117.26 50.1 115.6L46.41 112.38C44.31 110.57 43.01 108.55 43.01 105.29 43.01 100.66 45.9 98.06 50.57 98.06 56.07 98.06 57.62 101.75 57.91 106.01L53.32 106.81C53.21 104.06 52.81 102 50.46 102 48.87 102 48 103.19 48 104.75 48 106.74 48.83 107.82 50.39 109.16L54.04 112.38C56.43 114.44 58.41 117.01 58.41 120.88 58.41 125.11 55.45 128.07 51.07 128.07 45.73 128.07 43.19 124.96 42.98 119.14Z" fill="#1A3768"/><path d="M65.54 100.52 60.01 100.52 60.01 98.39 73.68 98.39 73.68 100.52 68.29 100.52 68.29 127.67 65.54 127.67 65.54 100.52Z" fill="#1A3768"/><path d="M75.55 120.12 75.55 114.34C75.55 109.31 76.78 106.46 81.12 106.46 85.49 106.46 86.72 109.28 86.72 114.34L86.72 120.12C86.72 125.18 85.49 128 81.12 128 76.78 128 75.55 125.18 75.55 120.12ZM84.05 120.26 84.05 114.19C84.05 110.79 83.87 108.44 81.12 108.44 78.41 108.44 78.23 110.79 78.23 114.19L78.23 120.26C78.23 123.66 78.41 126.01 81.12 126.01 83.87 126.01 84.05 123.66 84.05 120.26Z" fill="#1A3768"/><path d="M89.98 120.12 89.98 114.34C89.98 109.31 91.21 106.46 95.55 106.46 99.92 106.46 101.15 109.28 101.15 114.34L101.15 120.12C101.15 125.18 99.92 128 95.55 128 91.21 128 89.98 125.18 89.98 120.12ZM98.48 120.26 98.48 114.19C98.48 110.79 98.3 108.44 95.55 108.44 92.84 108.44 92.66 110.79 92.66 114.19L92.66 120.26C92.66 123.66 92.84 126.01 95.55 126.01 98.3 126.01 98.48 123.66 98.48 120.26Z" fill="#1A3768"/><path d="M105.17 98.39 107.81 98.39 107.81 127.67 105.17 127.67 105.17 98.39Z" fill="#1A3768"/></g><g><defs><path d="M38.47 55.78C29.63 44.46 34.67 26.72 51.06 23.04 54.99 22.16 59.15 22.67 62.75 24.48 77.74 32.03 78.32 50.45 67.01 59.28 58.16 66.19 45.38 64.62 38.47 55.78Z" id="SVGID_1_"/></defs><clipPath id="SVGID_2_"><use width="100%" height="100%" xlink:href="#SVGID_1_"></use></clipPath><path d="M23.82 92.25C24.45 89.51 25.07 86.77 25.91 84.11 26.81 81.47 27.64 78.77 29.01 76.38 29.68 75.17 30.42 73.98 31.16 72.79L32.25 71.03C34.24 70.49 37.17 68.38 39.91 65.36 40.65 64.54 41.37 63.76 42.04 63.02 42.22 62.98 42.41 62.94 42.6 62.89L42.55 64.77C42.52 66.34 42.48 67.9 42.65 69.51 42.7 69.91 42.76 70.32 42.88 70.73 42.94 70.94 43.02 71.15 43.13 71.36 43.19 71.47 43.26 71.57 43.35 71.68 43.43 71.78 43.57 71.89 43.65 71.94 44.35 72.42 45.08 72.7 45.81 72.97 47.21 73.48 48.63 73.88 50.06 74.25 50.06 74.77 50.13 75.26 50.31 75.75 50.51 76.31 50.89 76.82 51.4 77.21L51.41 77.22C51.44 77.24 51.48 77.26 51.51 77.28 51.74 77.37 52 77.26 52.09 77.03 52.18 76.8 52.07 76.54 51.84 76.45 51.42 76.28 51.06 75.95 50.85 75.51 50.74 75.29 50.66 75.05 50.61 74.81 50.56 74.57 50.53 74.3 50.55 74.07L50.57 73.86 50.36 73.81C48.89 73.44 47.44 72.96 46.06 72.35 45.38 72.04 44.7 71.68 44.18 71.25 43.99 71.11 43.93 70.84 43.87 70.5 43.82 70.17 43.81 69.81 43.81 69.45 43.86 67.99 44.17 66.5 44.54 65.04 44.86 63.85 45.25 62.65 45.71 61.5 46.54 61 47.37 60.38 48.18 59.67 48.27 60.11 48.36 60.56 48.47 61 48.79 62.29 49.09 63.56 49.77 64.85 49.97 65.17 50.13 65.53 50.67 65.83 50.74 65.87 50.82 65.89 50.9 65.92 50.99 65.94 51.09 65.95 51.12 65.95L51.4 65.95C51.58 65.94 51.75 65.93 51.93 65.91 52.61 65.83 53.25 65.71 53.89 65.57 55.13 65.3 56.34 64.99 57.55 64.66 58.01 65.06 58.52 65.39 59.14 65.58 59.47 65.68 59.85 65.72 60.22 65.65 60.6 65.58 60.96 65.38 61.23 65.13L61.25 65.12C61.26 65.11 61.27 65.1 61.28 65.08 61.44 64.89 61.41 64.62 61.23 64.46 61.04 64.3 60.77 64.33 60.61 64.51 60.3 64.88 59.84 65.01 59.3 64.9 58.77 64.8 58.23 64.51 57.78 64.18L57.78 64.18 57.7 64.1 57.55 64.13C56.29 64.35 55.01 64.54 53.74 64.68 53.11 64.75 52.47 64.8 51.86 64.81 51.71 64.81 51.56 64.81 51.42 64.8L51.22 64.78C51.15 64.77 51.24 64.78 51.21 64.77 51.18 64.75 51.01 64.51 50.91 64.27 50.49 63.22 50.29 61.93 50.11 60.69 49.99 59.81 49.91 58.91 49.84 58.02 50.49 57.3 51.06 56.56 51.57 55.82 51.74 56.05 51.89 56.29 52.07 56.52 52.43 56.97 52.8 57.42 53.27 57.83 53.51 58.03 53.77 58.24 54.14 58.4 54.32 58.48 54.56 58.54 54.79 58.53 55.02 58.53 55.18 58.48 55.35 58.44 56.55 58 57.38 57.32 58.27 56.66 59.11 56.02 59.91 55.36 60.7 54.66 61.33 54.95 62 55.12 62.72 55.15 63.1 55.15 63.49 55.1 63.87 54.97 64.25 54.84 64.6 54.61 64.91 54.35 64.92 54.34 64.94 54.32 64.95 54.31 65.11 54.13 65.09 53.85 64.91 53.69 64.73 53.53 64.45 53.55 64.29 53.73L64.28 53.74C63.9 54.18 63.33 54.45 62.69 54.5 62.06 54.55 61.36 54.44 60.75 54.22L60.63 54.18 60.53 54.25C59.66 54.88 58.76 55.48 57.85 56.03 56.94 56.55 55.95 57.11 55.07 57.29 54.97 57.3 54.87 57.31 54.83 57.3 54.79 57.29 54.77 57.27 54.7 57.24 54.58 57.16 54.42 57.01 54.28 56.83 53.99 56.48 53.72 56.04 53.48 55.6 53.23 55.15 53.01 54.68 52.79 54.21L52.69 53.97C53.42 52.55 53.87 51.15 54.03 49.9 54.78 49.69 55.48 49.28 56.04 48.66 57.11 47.48 57.38 45.86 56.9 44.45 57.97 43.56 59.07 42.7 60.22 41.92 61.13 41.31 62.07 40.75 63.05 40.29 64.02 39.84 65.06 39.47 66.09 39.45 66.6 39.45 67.1 39.54 67.53 39.77 67.95 40 68.32 40.39 68.69 40.78 69.41 41.57 69.97 42.51 70.34 43.53 71.08 45.56 71.13 47.86 70.63 50.01 71.34 47.91 71.47 45.56 70.8 43.37 70.46 42.28 69.9 41.26 69.16 40.37 68.79 39.94 68.41 39.49 67.85 39.18 67.3 38.88 66.68 38.76 66.09 38.75 64.89 38.76 63.78 39.15 62.74 39.61 61.7 40.08 60.74 40.67 59.8 41.29 58.68 42.05 57.62 42.88 56.61 43.76 56.39 43.35 56.11 42.96 55.74 42.63 55.52 42.43 55.29 42.26 55.04 42.12 55.87 40.93 56.63 39.7 57.29 38.4 57.84 37.32 58.32 36.19 58.6 34.98 58.87 33.8 59.01 32.43 58.34 31.23 58.02 30.63 57.46 30.21 56.94 29.9 56.41 29.57 55.84 29.31 55.26 29.12 54.09 28.73 52.87 28.55 51.66 28.51 49.24 28.45 46.84 28.84 44.55 29.54 45.71 29.27 46.9 29.1 48.08 29 49.26 28.89 50.45 28.86 51.63 28.96 52.8 29.05 53.97 29.25 55.06 29.66 55.6 29.86 56.12 30.12 56.6 30.43 57.08 30.75 57.51 31.08 57.76 31.56 58.28 32.5 58.18 33.7 57.91 34.8 57.62 35.92 57.15 37 56.63 38.05 55.97 39.34 55.21 40.59 54.39 41.81 52.8 41.21 50.93 41.59 49.72 42.93 49.16 43.55 48.83 44.29 48.69 45.06 47.45 45.34 46.1 45.93 44.75 46.81 43.86 46.87 42.93 46.87 42.08 46.77 41.59 46.71 41.06 46.58 40.85 46.43 40.8 46.4 40.78 46.38 40.77 46.38 40.75 46.37 40.73 46.27 40.73 46.16 40.72 45.94 40.74 45.68 40.77 45.41 40.9 44.35 41.16 43.25 41.43 42.17 41.71 41.09 42.01 40 42.34 38.93L42.37 38.84 42.32 38.78C42.1 38.34 42.05 37.8 42.16 37.34 42.27 36.87 42.54 36.46 42.89 36.11L42.9 36.11C42.92 36.09 42.94 36.07 42.95 36.05 43.09 35.85 43.03 35.57 42.83 35.44 42.63 35.3 42.35 35.36 42.22 35.56 42.05 35.81 41.89 36.08 41.78 36.37 41.66 36.65 41.6 36.97 41.57 37.27 41.53 37.86 41.69 38.43 42.01 38.91 41.56 39.92 41.13 40.94 40.73 41.97 40.32 43.03 39.93 44.09 39.64 45.24 39.57 45.53 39.51 45.83 39.48 46.17 39.47 46.34 39.46 46.52 39.52 46.79 39.59 47.06 39.74 47.28 39.89 47.45 40.53 48.07 41.14 48.21 41.73 48.41 41.98 48.48 42.23 48.54 42.48 48.59 42.13 48.91 41.79 49.24 41.45 49.59 40.29 49.65 39.1 49.68 37.94 49.66 36.69 49.63 35.39 49.58 34.3 49.28 34.04 49.21 33.79 49.07 33.76 49.04 33.75 49.01 33.76 49.1 33.75 49.03L33.71 48.83C33.68 48.69 33.67 48.54 33.65 48.39 33.59 47.78 33.57 47.14 33.57 46.5 33.57 45.22 33.61 43.93 33.69 42.64L33.69 42.56 33.62 42.5C33.25 42.19 32.94 41.76 32.84 41.35 32.74 40.93 32.92 40.57 33.22 40.28L33.23 40.27C33.25 40.25 33.27 40.22 33.29 40.19 33.42 39.98 33.36 39.71 33.15 39.58 32.94 39.45 32.67 39.51 32.54 39.72 32.37 39.98 32.21 40.26 32.17 40.6 32.12 40.92 32.16 41.27 32.29 41.55 32.54 42.08 32.94 42.43 33.38 42.7 33.15 43.95 32.94 45.19 32.78 46.46 32.7 47.11 32.63 47.76 32.61 48.44 32.61 48.61 32.61 48.78 32.62 48.97L32.65 49.25C32.65 49.34 32.73 49.58 32.8 49.69 33.15 50.19 33.52 50.33 33.85 50.5 35.2 51.06 36.49 51.25 37.81 51.46 38.44 51.55 39.07 51.63 39.7 51.7 39.02 52.63 38.45 53.57 38 54.5 36.99 55.08 35.92 55.6 34.85 56.08 33.47 56.67 32.04 57.2 30.61 57.48 30.25 57.54 29.9 57.59 29.56 57.59 29.22 57.58 28.93 57.56 28.77 57.4 28.26 56.94 27.81 56.33 27.4 55.71 26.59 54.45 25.89 53.08 25.3 51.68L25.22 51.48 25.01 51.53C24.78 51.58 24.52 51.59 24.27 51.58 24.02 51.57 23.77 51.53 23.54 51.45 23.07 51.31 22.69 51 22.46 50.62 22.44 50.59 22.41 50.55 22.38 50.53 22.2 50.36 21.92 50.37 21.75 50.54 21.58 50.72 21.59 51 21.76 51.17L21.77 51.18C22.23 51.62 22.8 51.92 23.38 52.03 23.89 52.13 24.39 52.13 24.9 52.05 25.49 53.41 26.1 54.75 26.82 56.06 27.2 56.74 27.59 57.42 28.17 58.04 28.22 58.11 28.36 58.23 28.47 58.3 28.59 58.37 28.7 58.43 28.82 58.47 29.05 58.55 29.27 58.59 29.48 58.62 29.91 58.68 30.32 58.67 30.72 58.66 32.33 58.58 33.87 58.31 35.41 58.03L36.9 57.76C36.84 58.08 36.8 58.4 36.78 58.71 36.16 59.39 35.52 60.12 34.84 60.86 32.04 63.96 30.22 67.16 29.94 69.19L24.42 72.67C23.16 73.45 21.92 74.21 20.62 74.9 19.32 75.58 17.99 76.22 16.66 76.87 14.03 78.15 11.24 79.15 8.46 80.12 5.65 80.97 2.83 81.87 0 82.73 2.89 82.1 5.77 81.37 8.62 80.53 11.47 79.69 14.29 78.75 17.03 77.54 18.37 76.92 19.72 76.3 21.05 75.62 22.38 74.94 23.68 74.19 24.93 73.4 26.62 72.35 28.29 71.26 29.95 70.17 30.02 70.44 30.14 70.67 30.33 70.84 30.52 71.01 30.77 71.11 31.06 71.15 30.05 72.7 29.06 74.27 28.14 75.91 27.45 77.16 26.88 78.49 26.41 79.83 25.95 81.18 25.5 82.49 25.11 83.87 24.36 86.61 23.79 89.37 23.31 92.15 22.82 94.93 22.43 97.72 22.11 100.51 22.64 97.75 23.22 94.99 23.82 92.25Z" fill="#F7E06E" clip-path="url(#SVGID_2_)"/></g><path d="M40.21 54.64C39.95 54.31 37.91 57.06 37.62 57.66 36.97 58.03 36.28 58.37 35.6 58.67 34.71 59.05 33.8 59.39 32.88 59.57 32.65 59.61 32.42 59.64 32.21 59.64 31.99 59.63 31.81 59.62 31.7 59.52 31.37 59.23 31.08 58.83 30.82 58.43 30.3 57.62 29.85 56.74 29.47 55.84L29.42 55.71 29.29 55.74C29.15 55.77 28.97 55.78 28.81 55.77 28.65 55.76 28.49 55.74 28.34 55.69 28.04 55.6 27.79 55.4 27.64 55.15 27.63 55.13 27.61 55.11 27.59 55.09 27.48 54.98 27.3 54.99 27.19 55.1 27.08 55.21 27.09 55.39 27.2 55.5L27.21 55.51C27.51 55.79 27.87 55.98 28.25 56.06 28.58 56.13 28.9 56.12 29.23 56.07 29.61 56.94 30 57.8 30.46 58.64 30.7 59.08 30.96 59.51 31.33 59.91 31.36 59.95 31.45 60.03 31.52 60.07 31.59 60.12 31.67 60.15 31.74 60.18 31.89 60.23 32.03 60.26 32.17 60.28 32.45 60.32 32.71 60.31 32.97 60.3 34 60.25 34.99 60.07 35.98 59.9L36.94 59.72C36.9 59.93 36.87 60.13 36.86 60.33 36.46 60.77 36.05 61.23 35.61 61.71 33.81 63.7 32.64 65.76 32.46 67.06L28.91 69.3C28.1 69.8 27.3 70.29 26.47 70.73 25.64 71.17 24.78 71.58 23.93 71.99 22.24 72.81 20.45 73.45 18.66 74.08 16.86 74.7 15.05 75.28 13.23 75.83 15.09 75.42 16.94 74.96 18.77 74.42 20.6 73.88 22.41 73.28 24.17 72.5 25.03 72.1 25.9 71.7 26.75 71.27 27.6 70.83 28.44 70.35 29.25 69.84 30.34 69.16 31.41 68.46 32.47 67.76 32.51 67.94 32.59 68.08 32.71 68.19 32.83 68.3 32.99 68.36 33.18 68.39 32.53 69.39 31.89 70.39 31.3 71.45 30.85 72.25 30.49 73.11 30.19 73.97 29.89 74.84 29.6 75.68 29.35 76.56 28.87 78.32 28.5 80.09 28.2 81.88 27.89 83.66 27.64 85.46 27.43 87.25 27.77 85.47 28.15 83.71 28.53 81.94 28.93 80.18 29.33 78.42 29.87 76.71 30.45 75.01 30.98 73.28 31.86 71.75 32.29 70.97 32.77 70.21 33.24 69.44L33.94 68.31C35.22 67.96 37.1 66.61 38.86 64.66 39.34 64.13 39.8 63.63 40.23 63.15 40.35 63.13 40.47 63.1 40.59 63.07L40.56 64.28C40.54 65.29 40.51 66.29 40.63 67.32 40.66 67.58 40.7 67.84 40.78 68.11 40.82 68.24 40.87 68.38 40.94 68.52 40.98 68.59 41.02 68.66 41.08 68.72 41.13 68.79 41.22 68.86 41.27 68.89 41.72 69.2 42.19 69.38 42.66 69.55 43.56 69.88 44.47 70.13 45.39 70.37 45.39 70.7 45.44 71.02 45.55 71.33 45.68 71.69 45.92 72.02 46.25 72.27L46.26 72.28C46.28 72.3 46.3 72.31 46.33 72.32 46.48 72.38 46.64 72.31 46.7 72.16 46.76 72.01 46.69 71.85 46.54 71.79 46.27 71.68 46.04 71.47 45.9 71.18 45.83 71.04 45.78 70.89 45.75 70.73 45.72 70.57 45.7 70.4 45.71 70.25L45.72 70.11 45.59 70.08C44.65 69.84 43.71 69.53 42.83 69.14 42.4 68.94 41.96 68.71 41.62 68.43 41.5 68.34 41.46 68.16 41.42 67.95 41.39 67.74 41.38 67.51 41.38 67.27 41.41 66.33 41.61 65.38 41.85 64.44 42.06 63.67 42.31 62.91 42.6 62.17 43.13 61.85 45.15 60.51 45.67 60.05 45.7 60.37 42.03 56.98 40.21 54.64Z" fill="#F7E06E"/><path d="M96.75 89.63 74.78 62.45 73.06 63.84 71.05 61.35 71.02 61.37C80.42 52.81 81.78 38.33 73.83 28.15 65.49 17.47 50.07 15.58 39.39 23.92 28.71 32.26 26.81 47.68 35.16 58.36 43.05 68.46 57.27 70.7 67.83 63.85L69.89 66.4 68.17 67.79 90.14 94.97C91.57 96.73 94.15 97.01 95.91 95.58L96.13 95.4C97.91 93.98 98.18 91.4 96.75 89.63ZM67.01 59.28C58.16 66.19 45.39 64.62 38.48 55.77 29.64 44.45 34.68 26.71 51.07 23.03 55 22.15 59.16 22.66 62.76 24.47 77.74 32.03 78.32 50.45 67.01 59.28Z" fill="#B6D4EF"/></g></svg>